<?xml version="1.0" standalone="no"?>
<!DOCTYPE svg PUBLIC "-//W3C//DTD SVG 1.1//EN" "http://www.w3.org/Graphics/SVG/1.1/DTD/svg11.dtd">
<svg xmlns="http://www.w3.org/2000/svg" xmlns:xlink="http://www.w3.org/1999/xlink" width="400" zoomAndPan="magnify" viewBox="0 0 810 809.999993" height="400" preserveAspectRatio="xMidYMid meet" version="1.0"><defs><g/></defs><g fill="#000000" fill-opacity="1"><g transform="translate(10.815145, 371.723883)"><g><path d="M 268.046875 -108.957031 L 284.925781 -128.394531 C 286.972656 -130.441406 290.042969 -128.394531 288.507812 -126.347656 L 238.886719 -58.316406 C 243.492188 -16.878906 277.253906 3.070312 317.152344 3.070312 C 357.5625 3.070312 396.953125 -33.25 396.953125 -77.242188 L 396.953125 -278.789062 C 396.953125 -353.472656 301.296875 -389.277344 252.699219 -327.894531 L 197.964844 -259.347656 L 144.765625 -327.894531 C 96.167969 -389.277344 0.511719 -353.472656 0.511719 -278.789062 L 0.511719 -77.242188 C 0.511719 -33.25 39.898438 3.070312 80.3125 3.070312 C 119.699219 3.070312 153.972656 -16.878906 158.578125 -58.316406 L 108.957031 -126.347656 C 106.910156 -128.90625 110.492188 -130.441406 112.539062 -128.394531 L 128.394531 -108.957031 C 150.390625 -83.890625 173.921875 -61.894531 197.453125 -61.894531 C 221.496094 -61.382812 246.5625 -83.378906 268.046875 -108.957031 Z M 268.046875 -108.957031 "/></g></g></g><g fill="#000000" fill-opacity="1"><g transform="translate(438.713772, 371.723883)"><g><path d="M 44.503906 -6.648438 C 84.914062 12.277344 133 -4.605469 152.4375 -45.015625 L 167.785156 -78.265625 L 153.972656 -135.558594 C 153.460938 -139.136719 157.042969 -139.648438 158.066406 -137.601562 L 202.058594 -45.015625 C 220.984375 -4.605469 269.066406 12.277344 309.480469 -6.648438 C 349.890625 -25.578125 366.773438 -74.171875 347.84375 -113.5625 L 250.140625 -319.199219 C 220.472656 -381.605469 131.976562 -380.582031 102.820312 -318.6875 L 6.136719 -113.5625 C -12.789062 -74.171875 4.09375 -25.578125 44.503906 -6.648438 Z M 44.503906 -6.648438 "/></g></g></g><g fill="#000000" fill-opacity="1"><g transform="translate(27.752371, 769.967097)"><g><path d="M 363.191406 -80.824219 L 363.191406 -282.367188 C 363.191406 -326.871094 326.359375 -364.214844 280.832031 -364.214844 C 242.980469 -364.214844 209.730469 -335.566406 202.058594 -300.785156 L 232.238281 -256.792969 C 233.773438 -253.722656 229.167969 -250.652344 227.632812 -253.722656 L 144.253906 -335.566406 C 128.90625 -350.914062 106.398438 -364.214844 81.847656 -364.214844 C 36.832031 -364.214844 0 -326.871094 0 -282.367188 L 0 -80.824219 C 0 -34.785156 36.832031 1.023438 81.847656 1.023438 C 120.210938 1.023438 153.460938 -25.578125 161.132812 -60.871094 L 131.976562 -105.886719 C 130.441406 -109.46875 135.046875 -114.074219 136.582031 -111.003906 C 165.226562 -80.824219 194.382812 -53.199219 224.566406 -24.042969 C 270.601562 22.507812 363.191406 -2.046875 363.191406 -80.824219 Z M 363.191406 -80.824219 "/></g></g></g><g fill="#000000" fill-opacity="1"><g transform="translate(438.713772, 769.967097)"><g><path d="M 44.503906 -6.648438 C 84.914062 12.277344 133 -4.605469 152.4375 -45.015625 L 167.785156 -78.265625 L 153.972656 -135.558594 C 153.460938 -139.136719 157.042969 -139.648438 158.066406 -137.601562 L 202.058594 -45.015625 C 220.984375 -4.605469 269.066406 12.277344 309.480469 -6.648438 C 349.890625 -25.578125 366.773438 -74.171875 347.84375 -113.5625 L 250.140625 -319.199219 C 220.472656 -381.605469 131.976562 -380.582031 102.820312 -318.6875 L 6.136719 -113.5625 C -12.789062 -74.171875 4.09375 -25.578125 44.503906 -6.648438 Z M 44.503906 -6.648438 "/></g></g></g></svg>