<svg xmlns="http://www.w3.org/2000/svg" xmlns:xlink="http://www.w3.org/1999/xlink" width="793" zoomAndPan="magnify" viewBox="0 0 595.5 842.249979" height="1122" preserveAspectRatio="xMidYMid meet" version="1.0"><path fill="#e73ba5" d="M 204.765625 316.132812 L 217.160156 301.859375 C 218.664062 300.355469 220.917969 301.859375 219.789062 303.363281 L 183.355469 353.3125 C 186.738281 383.738281 211.527344 398.386719 240.824219 398.386719 C 270.492188 398.386719 299.414062 371.71875 299.414062 339.417969 L 299.414062 191.433594 C 299.414062 136.597656 229.179688 110.308594 193.5 155.378906 L 153.308594 205.707031 L 114.25 155.378906 C 78.566406 110.308594 8.332031 136.597656 8.332031 191.433594 L 8.332031 339.417969 C 8.332031 371.71875 37.25 398.386719 66.925781 398.386719 C 95.84375 398.386719 121.007812 383.738281 124.390625 353.3125 L 87.957031 303.363281 C 86.453125 301.484375 89.082031 300.355469 90.585938 301.859375 L 102.230469 316.132812 C 118.378906 334.535156 135.65625 350.6875 152.933594 350.6875 C 170.585938 351.0625 188.992188 334.914062 204.765625 316.132812 Z M 204.765625 316.132812 " fill-opacity="1" fill-rule="nonzero"/><path fill="#e73ba5" d="M 354.8125 391.25 C 384.484375 405.148438 419.792969 392.75 434.0625 363.082031 L 445.332031 338.667969 L 435.191406 296.601562 C 434.816406 293.972656 437.445312 293.597656 438.195312 295.101562 L 470.496094 363.082031 C 484.394531 392.75 519.695312 405.148438 549.371094 391.25 C 579.042969 377.351562 591.4375 341.671875 577.539062 312.75 L 505.800781 161.761719 C 484.019531 115.941406 419.039062 116.695312 397.632812 162.140625 L 326.644531 312.75 C 312.746094 341.671875 325.144531 377.351562 354.8125 391.25 Z M 354.8125 391.25 " fill-opacity="1" fill-rule="nonzero"/><path fill="#e73ba5" d="M 287.0625 629.195312 L 287.0625 481.214844 C 287.0625 448.535156 260.019531 421.117188 226.589844 421.117188 C 198.796875 421.117188 174.382812 442.152344 168.75 467.691406 L 190.910156 499.992188 C 192.039062 502.246094 188.65625 504.5 187.53125 502.246094 L 126.308594 442.152344 C 115.039062 430.882812 98.515625 421.117188 80.488281 421.117188 C 47.433594 421.117188 20.390625 448.535156 20.390625 481.214844 L 20.390625 629.195312 C 20.390625 663 47.433594 689.289062 80.488281 689.289062 C 108.65625 689.289062 133.070312 669.757812 138.703125 643.84375 L 117.292969 610.792969 C 116.167969 608.164062 119.550781 604.78125 120.675781 607.035156 C 141.707031 629.195312 163.117188 649.476562 185.277344 670.886719 C 219.078125 705.066406 287.0625 687.035156 287.0625 629.195312 Z M 287.0625 629.195312 " fill-opacity="1" fill-rule="nonzero"/><path fill="#e73ba5" d="M 354.8125 683.65625 C 384.484375 697.554688 419.792969 685.15625 434.0625 655.488281 L 445.332031 631.074219 L 435.191406 589.007812 C 434.816406 586.378906 437.445312 586.003906 438.195312 587.507812 L 470.496094 655.488281 C 484.394531 685.15625 519.695312 697.554688 549.371094 683.65625 C 579.042969 669.757812 591.4375 634.078125 577.539062 605.15625 L 505.800781 454.171875 C 484.019531 408.347656 419.039062 409.101562 397.632812 454.546875 L 326.644531 605.15625 C 312.746094 634.078125 325.144531 669.757812 354.8125 683.65625 Z M 354.8125 683.65625 " fill-opacity="1" fill-rule="nonzero"/></svg>